<mxfile host="app.diagrams.net" modified="2024-05-19T09:58:57.840Z" agent="Mozilla/5.0 (Windows NT 10.0; Win64; x64) AppleWebKit/537.36 (KHTML, like Gecko) Chrome/125.0.0.0 Safari/537.36" etag="Bw9Spr97XrRdvAcPHfSe" version="24.4.3" type="device">
  <diagram name="Trang-1" id="OThPu8Ff-TEqp-s5xurF">
    <mxGraphModel dx="1050" dy="541" grid="1" gridSize="10" guides="1" tooltips="1" connect="1" arrows="1" fold="1" page="1" pageScale="1" pageWidth="827" pageHeight="1169" math="0" shadow="0">
      <root>
        <mxCell id="0" />
        <mxCell id="1" parent="0" />
        <mxCell id="zy_iWD25mKT_9F-a_StT-1" value="" style="rounded=0;whiteSpace=wrap;html=1;" vertex="1" parent="1">
          <mxGeometry x="160" y="100" width="120" height="60" as="geometry" />
        </mxCell>
        <mxCell id="zy_iWD25mKT_9F-a_StT-2" value="" style="rounded=0;whiteSpace=wrap;html=1;" vertex="1" parent="1">
          <mxGeometry x="320" y="100" width="120" height="60" as="geometry" />
        </mxCell>
        <mxCell id="zy_iWD25mKT_9F-a_StT-3" value="" style="rounded=0;whiteSpace=wrap;html=1;" vertex="1" parent="1">
          <mxGeometry x="480" y="100" width="120" height="60" as="geometry" />
        </mxCell>
        <mxCell id="zy_iWD25mKT_9F-a_StT-4" value="" style="rounded=0;whiteSpace=wrap;html=1;" vertex="1" parent="1">
          <mxGeometry x="640" y="100" width="120" height="60" as="geometry" />
        </mxCell>
        <mxCell id="zy_iWD25mKT_9F-a_StT-5" value="" style="rounded=0;whiteSpace=wrap;html=1;" vertex="1" parent="1">
          <mxGeometry x="640" y="280" width="120" height="60" as="geometry" />
        </mxCell>
        <mxCell id="zy_iWD25mKT_9F-a_StT-6" value="" style="rounded=0;whiteSpace=wrap;html=1;" vertex="1" parent="1">
          <mxGeometry x="480" y="280" width="120" height="60" as="geometry" />
        </mxCell>
        <mxCell id="zy_iWD25mKT_9F-a_StT-7" value="" style="rounded=0;whiteSpace=wrap;html=1;" vertex="1" parent="1">
          <mxGeometry x="320" y="280" width="120" height="60" as="geometry" />
        </mxCell>
        <mxCell id="zy_iWD25mKT_9F-a_StT-8" value="" style="rounded=0;whiteSpace=wrap;html=1;" vertex="1" parent="1">
          <mxGeometry x="160" y="280" width="120" height="60" as="geometry" />
        </mxCell>
        <mxCell id="zy_iWD25mKT_9F-a_StT-9" value="" style="endArrow=classic;html=1;rounded=0;exitX=0.5;exitY=1;exitDx=0;exitDy=0;entryX=0.5;entryY=0;entryDx=0;entryDy=0;" edge="1" parent="1" source="zy_iWD25mKT_9F-a_StT-1" target="zy_iWD25mKT_9F-a_StT-8">
          <mxGeometry relative="1" as="geometry">
            <mxPoint x="360" y="280" as="sourcePoint" />
            <mxPoint x="460" y="280" as="targetPoint" />
          </mxGeometry>
        </mxCell>
        <mxCell id="zy_iWD25mKT_9F-a_StT-10" value="Label" style="edgeLabel;resizable=0;html=1;;align=center;verticalAlign=middle;" connectable="0" vertex="1" parent="zy_iWD25mKT_9F-a_StT-9">
          <mxGeometry relative="1" as="geometry" />
        </mxCell>
        <mxCell id="zy_iWD25mKT_9F-a_StT-11" value="" style="endArrow=classic;html=1;rounded=0;entryX=0.5;entryY=0;entryDx=0;entryDy=0;" edge="1" parent="1" target="zy_iWD25mKT_9F-a_StT-7">
          <mxGeometry relative="1" as="geometry">
            <mxPoint x="220" y="160" as="sourcePoint" />
            <mxPoint x="300" y="300" as="targetPoint" />
          </mxGeometry>
        </mxCell>
        <mxCell id="zy_iWD25mKT_9F-a_StT-13" value="" style="endArrow=classic;html=1;rounded=0;entryX=0.5;entryY=0;entryDx=0;entryDy=0;" edge="1" parent="1" target="zy_iWD25mKT_9F-a_StT-6">
          <mxGeometry relative="1" as="geometry">
            <mxPoint x="220" y="160" as="sourcePoint" />
            <mxPoint x="240" y="300" as="targetPoint" />
          </mxGeometry>
        </mxCell>
        <mxCell id="zy_iWD25mKT_9F-a_StT-15" value="" style="endArrow=classic;html=1;rounded=0;exitX=0.5;exitY=1;exitDx=0;exitDy=0;entryX=0.5;entryY=0;entryDx=0;entryDy=0;" edge="1" parent="1" source="zy_iWD25mKT_9F-a_StT-1" target="zy_iWD25mKT_9F-a_StT-5">
          <mxGeometry relative="1" as="geometry">
            <mxPoint x="250" y="190" as="sourcePoint" />
            <mxPoint x="250" y="310" as="targetPoint" />
          </mxGeometry>
        </mxCell>
        <mxCell id="zy_iWD25mKT_9F-a_StT-17" value="" style="endArrow=classic;html=1;rounded=0;exitX=0.5;exitY=1;exitDx=0;exitDy=0;entryX=0.5;entryY=0;entryDx=0;entryDy=0;" edge="1" parent="1">
          <mxGeometry relative="1" as="geometry">
            <mxPoint x="379.5" y="160" as="sourcePoint" />
            <mxPoint x="379.5" y="280" as="targetPoint" />
          </mxGeometry>
        </mxCell>
        <mxCell id="zy_iWD25mKT_9F-a_StT-18" value="Label" style="edgeLabel;resizable=0;html=1;;align=center;verticalAlign=middle;" connectable="0" vertex="1" parent="zy_iWD25mKT_9F-a_StT-17">
          <mxGeometry relative="1" as="geometry" />
        </mxCell>
        <mxCell id="zy_iWD25mKT_9F-a_StT-19" value="" style="endArrow=classic;html=1;rounded=0;exitX=0.5;exitY=1;exitDx=0;exitDy=0;entryX=0.5;entryY=0;entryDx=0;entryDy=0;" edge="1" parent="1">
          <mxGeometry relative="1" as="geometry">
            <mxPoint x="539.5" y="160" as="sourcePoint" />
            <mxPoint x="539.5" y="280" as="targetPoint" />
          </mxGeometry>
        </mxCell>
        <mxCell id="zy_iWD25mKT_9F-a_StT-20" value="Label" style="edgeLabel;resizable=0;html=1;;align=center;verticalAlign=middle;" connectable="0" vertex="1" parent="zy_iWD25mKT_9F-a_StT-19">
          <mxGeometry relative="1" as="geometry" />
        </mxCell>
        <mxCell id="zy_iWD25mKT_9F-a_StT-21" value="" style="endArrow=classic;html=1;rounded=0;exitX=0.5;exitY=1;exitDx=0;exitDy=0;entryX=0.5;entryY=0;entryDx=0;entryDy=0;" edge="1" parent="1">
          <mxGeometry relative="1" as="geometry">
            <mxPoint x="699.5" y="160" as="sourcePoint" />
            <mxPoint x="699.5" y="280" as="targetPoint" />
          </mxGeometry>
        </mxCell>
        <mxCell id="zy_iWD25mKT_9F-a_StT-22" value="Label" style="edgeLabel;resizable=0;html=1;;align=center;verticalAlign=middle;" connectable="0" vertex="1" parent="zy_iWD25mKT_9F-a_StT-21">
          <mxGeometry relative="1" as="geometry" />
        </mxCell>
        <mxCell id="zy_iWD25mKT_9F-a_StT-23" value="" style="endArrow=classic;html=1;rounded=0;entryX=0.5;entryY=0;entryDx=0;entryDy=0;exitX=0.5;exitY=1;exitDx=0;exitDy=0;" edge="1" parent="1" source="zy_iWD25mKT_9F-a_StT-2" target="zy_iWD25mKT_9F-a_StT-6">
          <mxGeometry relative="1" as="geometry">
            <mxPoint x="230" y="170" as="sourcePoint" />
            <mxPoint x="390" y="290" as="targetPoint" />
          </mxGeometry>
        </mxCell>
        <mxCell id="zy_iWD25mKT_9F-a_StT-24" value="" style="endArrow=classic;html=1;rounded=0;entryX=0.5;entryY=0;entryDx=0;entryDy=0;" edge="1" parent="1" target="zy_iWD25mKT_9F-a_StT-8">
          <mxGeometry relative="1" as="geometry">
            <mxPoint x="380" y="160" as="sourcePoint" />
            <mxPoint x="400" y="300" as="targetPoint" />
          </mxGeometry>
        </mxCell>
        <mxCell id="zy_iWD25mKT_9F-a_StT-25" value="" style="endArrow=classic;html=1;rounded=0;entryX=0.5;entryY=0;entryDx=0;entryDy=0;exitX=0.5;exitY=1;exitDx=0;exitDy=0;" edge="1" parent="1" source="zy_iWD25mKT_9F-a_StT-2" target="zy_iWD25mKT_9F-a_StT-5">
          <mxGeometry relative="1" as="geometry">
            <mxPoint x="390" y="170" as="sourcePoint" />
            <mxPoint x="550" y="290" as="targetPoint" />
          </mxGeometry>
        </mxCell>
      </root>
    </mxGraphModel>
  </diagram>
</mxfile>
